<?xml version="1.0" encoding="UTF-8" standalone="no"?>
<!DOCTYPE svg PUBLIC "-//W3C//DTD SVG 1.1//EN" "http://www.w3.org/Graphics/SVG/1.1/DTD/svg11.dtd">
<svg width="100%" height="100%" viewBox="0 0 38 38" version="1.1" xmlns="http://www.w3.org/2000/svg" xmlns:xlink="http://www.w3.org/1999/xlink" xml:space="preserve" xmlns:serif="http://www.serif.com/" style="fill-rule:evenodd;clip-rule:evenodd;stroke-linejoin:round;stroke-miterlimit:2;">
    <g transform="matrix(1,0,0,1,-14512,-6163)">
        <g transform="matrix(1.54237,0,0,1.78947,10782.5,-830.895)">
            <g id="settings" transform="matrix(0.0467712,0,0,0.0403128,2430.33,3918.95)">
                <g transform="matrix(1,0,0,1,-256,-256)">
                    <clipPath id="_clip1">
                        <rect x="0" y="0" width="512" height="512"/>
                    </clipPath>
                    <g clip-path="url(#_clip1)">
                        <path d="M272.066,512L239.933,512C213.944,512 192.799,490.856 192.799,464.867L192.799,453.996C181.75,450.466 171.015,446.01 160.702,440.673L152.998,448.377C134.339,467.059 104.45,466.511 86.333,448.37L63.622,425.66C45.473,407.531 44.951,377.652 63.628,358.995L71.326,351.297C65.989,340.984 61.534,330.251 58.003,319.2L47.133,319.2C21.145,319.2 0,298.056 0,272.067L0,239.933C0,213.944 21.145,192.8 47.134,192.8L58.004,192.8C61.535,181.75 65.99,171.016 71.327,160.703L63.623,153C44.957,134.354 45.472,104.472 63.629,86.335L86.342,63.623C104.501,45.439 134.383,44.985 153.006,63.629L160.703,71.326C171.016,65.99 181.751,61.534 192.8,58.003L192.8,47.133C192.8,21.144 213.944,0 239.934,0L272.067,0C298.056,0 319.2,21.144 319.2,47.133L319.2,58.004C330.249,61.534 340.984,65.99 351.297,71.327L359.001,63.623C377.66,44.941 407.549,45.489 425.666,63.63L448.377,86.34C466.526,104.469 467.048,134.348 448.371,153.005L440.673,160.703C446.01,171.016 450.465,181.749 453.996,192.8L464.866,192.8C490.855,192.8 512,213.944 512,239.933L512,272.067C512,298.056 490.855,319.2 464.866,319.2L453.996,319.2C450.465,330.25 446.01,340.984 440.673,351.297L448.377,359.001C467.043,377.647 466.528,407.529 448.371,425.666L425.658,448.378C407.499,466.562 377.617,467.016 358.994,448.372L351.297,440.675C340.984,446.011 330.249,450.467 319.2,453.998L319.2,464.869C319.2,490.856 298.056,512 272.066,512ZM165.717,409.17C180.044,417.643 195.464,424.044 211.548,428.195C218.172,429.904 222.8,435.878 222.8,442.719L222.8,464.867C222.8,474.314 230.487,482 239.934,482L272.067,482C281.514,482 289.201,474.314 289.201,464.867L289.201,442.719C289.201,435.878 293.829,429.904 300.453,428.195C316.537,424.044 331.957,417.643 346.284,409.17C352.179,405.684 359.684,406.632 364.527,411.475L380.215,427.164C386.979,433.936 397.841,433.779 404.439,427.171L427.166,404.445C433.748,397.871 433.968,387.007 427.172,380.22L411.477,364.525C406.635,359.683 405.687,352.177 409.172,346.283C417.645,331.957 424.045,316.537 428.196,300.452C429.906,293.828 435.88,289.201 442.72,289.201L464.867,289.201C474.314,289.201 482.001,281.515 482.001,272.068L482.001,239.934C482.001,230.487 474.314,222.801 464.867,222.801L442.72,222.801C435.879,222.801 429.906,218.173 428.196,211.55C424.045,195.465 417.644,180.045 409.172,165.719C405.687,159.825 406.635,152.319 411.477,147.477L427.166,131.788C433.948,125.014 433.771,114.154 427.172,107.563L404.447,84.838C397.86,78.242 386.996,78.049 380.222,84.832L364.528,100.527C359.686,105.37 352.178,106.318 346.285,102.832C331.958,94.359 316.538,87.958 300.454,83.807C293.83,82.098 289.202,76.124 289.202,69.283L289.202,47.133C289.202,37.686 281.515,30 272.068,30L239.935,30C230.488,30 222.801,37.686 222.801,47.133L222.801,69.281C222.801,76.122 218.173,82.096 211.549,83.805C195.465,87.956 180.045,94.357 165.718,102.83C159.822,106.315 152.317,105.367 147.475,100.525L131.787,84.836C125.023,78.064 114.16,78.221 107.563,84.829L84.836,107.555C78.254,114.129 78.034,124.992 84.83,131.78L100.525,147.475C105.367,152.317 106.315,159.823 102.83,165.717C94.357,180.043 87.957,195.463 83.806,211.548C82.096,218.172 76.122,222.799 69.282,222.799L47.134,222.799C37.687,222.8 30,230.486 30,239.933L30,272.067C30,281.514 37.687,289.2 47.134,289.2L69.281,289.2C76.122,289.2 82.095,293.828 83.805,300.451C87.956,316.536 94.357,331.956 102.829,346.282C106.314,352.176 105.366,359.682 100.524,364.524L84.835,380.213C78.053,386.987 78.23,397.847 84.829,404.438L107.554,427.163C114.141,433.759 125.005,433.952 131.779,427.169L147.473,411.474C151.041,407.907 158.464,404.88 165.717,409.17Z" style="fill-rule:nonzero;"/>
                        <path d="M256,367.4C194.573,367.4 144.6,317.426 144.6,256C144.6,194.574 194.573,144.6 256,144.6C317.427,144.6 367.4,194.574 367.4,256C367.4,317.426 317.427,367.4 256,367.4ZM256,174.6C211.115,174.6 174.6,211.116 174.6,256C174.6,300.884 211.116,337.4 256,337.4C300.884,337.4 337.4,300.884 337.4,256C337.4,211.116 300.885,174.6 256,174.6Z" style="fill-rule:nonzero;"/>
                    </g>
                </g>
            </g>
        </g>
    </g>
</svg>
